<mxfile host="app.diagrams.net" modified="2021-08-22T23:25:29.114Z" agent="5.0 (X11; Linux x86_64) AppleWebKit/537.36 (KHTML, like Gecko) Chrome/94.0.4592.0 Safari/537.36 Edg/94.0.975.1" etag="At-pTL7ZqgowOFG4Rliu" version="14.9.8" type="github">
  <diagram id="pVrbfgKLH-cwVI1iCpht" name="Page-1">
    <mxGraphModel dx="1422" dy="765" grid="1" gridSize="10" guides="1" tooltips="1" connect="1" arrows="1" fold="1" page="1" pageScale="1" pageWidth="827" pageHeight="583" math="0" shadow="0">
      <root>
        <mxCell id="0" />
        <mxCell id="1" parent="0" />
        <mxCell id="1WBIEe12ruX9115S_YNn-14" style="edgeStyle=orthogonalEdgeStyle;rounded=0;orthogonalLoop=1;jettySize=auto;html=1;exitX=0.5;exitY=1;exitDx=0;exitDy=0;endArrow=none;endFill=0;" edge="1" parent="1" source="1WBIEe12ruX9115S_YNn-1">
          <mxGeometry relative="1" as="geometry">
            <mxPoint x="838" y="140" as="targetPoint" />
          </mxGeometry>
        </mxCell>
        <mxCell id="1WBIEe12ruX9115S_YNn-1" value="1. Projeto Sistema de agendamento de prevenções ao combate ao câncer de colo de útero" style="rounded=0;whiteSpace=wrap;html=1;fillColor=#666666;strokeColor=none;fontColor=#FFFFFF;" vertex="1" parent="1">
          <mxGeometry x="745" y="30" width="186" height="90" as="geometry" />
        </mxCell>
        <mxCell id="1WBIEe12ruX9115S_YNn-29" style="edgeStyle=orthogonalEdgeStyle;rounded=0;orthogonalLoop=1;jettySize=auto;html=1;exitX=0.5;exitY=1;exitDx=0;exitDy=0;entryX=0.5;entryY=0;entryDx=0;entryDy=0;endArrow=none;endFill=0;" edge="1" parent="1" source="1WBIEe12ruX9115S_YNn-2" target="1WBIEe12ruX9115S_YNn-24">
          <mxGeometry relative="1" as="geometry">
            <Array as="points">
              <mxPoint x="497" y="270" />
              <mxPoint x="348" y="270" />
            </Array>
          </mxGeometry>
        </mxCell>
        <mxCell id="1WBIEe12ruX9115S_YNn-2" value="1.1 Módulo de pacientes&amp;nbsp;" style="rounded=0;whiteSpace=wrap;html=1;" vertex="1" parent="1">
          <mxGeometry x="429" y="160" width="136" height="90" as="geometry" />
        </mxCell>
        <mxCell id="1WBIEe12ruX9115S_YNn-31" style="edgeStyle=orthogonalEdgeStyle;rounded=0;orthogonalLoop=1;jettySize=auto;html=1;exitX=0.5;exitY=0;exitDx=0;exitDy=0;entryX=0.5;entryY=1;entryDx=0;entryDy=0;endArrow=none;endFill=0;" edge="1" parent="1" source="1WBIEe12ruX9115S_YNn-8" target="1WBIEe12ruX9115S_YNn-9">
          <mxGeometry relative="1" as="geometry" />
        </mxCell>
        <mxCell id="1WBIEe12ruX9115S_YNn-8" value="1.2.1 Adição&amp;nbsp; e consulta de agentes de saúde&amp;nbsp;" style="rounded=0;whiteSpace=wrap;html=1;" vertex="1" parent="1">
          <mxGeometry x="600" y="280" width="136" height="90" as="geometry" />
        </mxCell>
        <mxCell id="1WBIEe12ruX9115S_YNn-28" style="edgeStyle=orthogonalEdgeStyle;rounded=0;orthogonalLoop=1;jettySize=auto;html=1;exitX=0.5;exitY=0;exitDx=0;exitDy=0;endArrow=none;endFill=0;" edge="1" parent="1" source="1WBIEe12ruX9115S_YNn-9">
          <mxGeometry relative="1" as="geometry">
            <mxPoint x="748.3333333333335" y="140" as="targetPoint" />
          </mxGeometry>
        </mxCell>
        <mxCell id="1WBIEe12ruX9115S_YNn-9" value="1.2 Módulo de UBS&amp;nbsp;" style="rounded=0;whiteSpace=wrap;html=1;" vertex="1" parent="1">
          <mxGeometry x="680" y="160" width="136" height="90" as="geometry" />
        </mxCell>
        <mxCell id="1WBIEe12ruX9115S_YNn-18" style="edgeStyle=orthogonalEdgeStyle;rounded=0;orthogonalLoop=1;jettySize=auto;html=1;exitX=0.5;exitY=0;exitDx=0;exitDy=0;endArrow=none;endFill=0;" edge="1" parent="1" source="1WBIEe12ruX9115S_YNn-10">
          <mxGeometry relative="1" as="geometry">
            <mxPoint x="997.8571428571429" y="140" as="targetPoint" />
          </mxGeometry>
        </mxCell>
        <mxCell id="1WBIEe12ruX9115S_YNn-10" value="1.3 Módulo de agendamento de prevenções&amp;nbsp;" style="rounded=0;whiteSpace=wrap;html=1;" vertex="1" parent="1">
          <mxGeometry x="931" y="160" width="136" height="90" as="geometry" />
        </mxCell>
        <mxCell id="1WBIEe12ruX9115S_YNn-11" value="1.4 Módulo de relatórios" style="rounded=0;whiteSpace=wrap;html=1;" vertex="1" parent="1">
          <mxGeometry x="1220" y="160" width="136" height="90" as="geometry" />
        </mxCell>
        <mxCell id="1WBIEe12ruX9115S_YNn-15" style="edgeStyle=orthogonalEdgeStyle;rounded=0;orthogonalLoop=1;jettySize=auto;html=1;endArrow=none;endFill=0;exitX=0.5;exitY=0;exitDx=0;exitDy=0;entryX=0.5;entryY=0;entryDx=0;entryDy=0;" edge="1" parent="1" source="1WBIEe12ruX9115S_YNn-2" target="1WBIEe12ruX9115S_YNn-11">
          <mxGeometry relative="1" as="geometry">
            <mxPoint x="504" y="140" as="sourcePoint" />
            <mxPoint x="1154" y="140" as="targetPoint" />
            <Array as="points">
              <mxPoint x="497" y="140" />
              <mxPoint x="1288" y="140" />
            </Array>
          </mxGeometry>
        </mxCell>
        <mxCell id="1WBIEe12ruX9115S_YNn-24" value="1.1.1 Consulta, podendo filtrar por tipo de prevenção (primaria ou secundária), por nome e UBS" style="rounded=0;whiteSpace=wrap;html=1;" vertex="1" parent="1">
          <mxGeometry x="280" y="280" width="136" height="90" as="geometry" />
        </mxCell>
        <mxCell id="1WBIEe12ruX9115S_YNn-30" style="edgeStyle=orthogonalEdgeStyle;rounded=0;orthogonalLoop=1;jettySize=auto;html=1;exitX=0.5;exitY=0;exitDx=0;exitDy=0;endArrow=none;endFill=0;" edge="1" parent="1" source="1WBIEe12ruX9115S_YNn-25">
          <mxGeometry relative="1" as="geometry">
            <mxPoint x="490" y="270" as="targetPoint" />
          </mxGeometry>
        </mxCell>
        <mxCell id="1WBIEe12ruX9115S_YNn-25" value="1.1.2 Adição de novos pacientes, atualização e remoção&amp;nbsp;&amp;nbsp;" style="rounded=0;whiteSpace=wrap;html=1;" vertex="1" parent="1">
          <mxGeometry x="440" y="280" width="136" height="90" as="geometry" />
        </mxCell>
        <mxCell id="1WBIEe12ruX9115S_YNn-35" style="edgeStyle=orthogonalEdgeStyle;rounded=0;orthogonalLoop=1;jettySize=auto;html=1;entryX=0.5;entryY=1;entryDx=0;entryDy=0;endArrow=none;endFill=0;" edge="1" parent="1" source="1WBIEe12ruX9115S_YNn-34" target="1WBIEe12ruX9115S_YNn-10">
          <mxGeometry relative="1" as="geometry">
            <Array as="points">
              <mxPoint x="910" y="260" />
              <mxPoint x="999" y="260" />
            </Array>
          </mxGeometry>
        </mxCell>
        <mxCell id="1WBIEe12ruX9115S_YNn-34" value="1.3.1 Adição e consulta de prevenções&amp;nbsp;" style="rounded=0;whiteSpace=wrap;html=1;" vertex="1" parent="1">
          <mxGeometry x="840" y="280" width="136" height="90" as="geometry" />
        </mxCell>
        <mxCell id="1WBIEe12ruX9115S_YNn-38" style="edgeStyle=orthogonalEdgeStyle;rounded=0;orthogonalLoop=1;jettySize=auto;html=1;exitX=0.5;exitY=0;exitDx=0;exitDy=0;entryX=0.5;entryY=1;entryDx=0;entryDy=0;endArrow=none;endFill=0;" edge="1" parent="1" source="1WBIEe12ruX9115S_YNn-36" target="1WBIEe12ruX9115S_YNn-10">
          <mxGeometry relative="1" as="geometry" />
        </mxCell>
        <mxCell id="1WBIEe12ruX9115S_YNn-36" value="1.3.2 Agendamento de prevenções&amp;nbsp;" style="rounded=0;whiteSpace=wrap;html=1;" vertex="1" parent="1">
          <mxGeometry x="1010" y="280" width="136" height="90" as="geometry" />
        </mxCell>
      </root>
    </mxGraphModel>
  </diagram>
</mxfile>
